<svg xmlns="http://www.w3.org/2000/svg" width="34" height="34" fill="none"><path fill="#fff" d="M14.571 9.714A2.34 2.34 0 0 1 12.856 9a2.333 2.333 0 0 1-.713-1.714V2.429c0-.668.238-1.24.714-1.716A2.334 2.334 0 0 1 14.57 0h4.858c.667 0 1.24.238 1.715.714.476.476.714 1.048.713 1.715v4.857a2.34 2.34 0 0 1-.714 1.716 2.334 2.334 0 0 1-1.714.712H14.57ZM9.714 7.286A2.34 2.34 0 0 1 9 9.002a2.334 2.334 0 0 1-1.714.712H2.429A2.34 2.34 0 0 1 .713 9 2.334 2.334 0 0 1 0 7.286V2.429C0 1.76.238 1.189.714.713A2.334 2.334 0 0 1 2.429 0h4.857c.668 0 1.24.238 1.716.714.475.476.713 1.048.712 1.715v4.857Zm2.429 7.285c0-.667.238-1.24.714-1.715a2.333 2.333 0 0 1 1.714-.713h4.858c.667 0 1.24.238 1.715.714.476.476.714 1.047.713 1.714v4.858a2.34 2.34 0 0 1-.714 1.715 2.334 2.334 0 0 1-1.714.713H14.57a2.34 2.34 0 0 1-1.715-.714 2.333 2.333 0 0 1-.713-1.714V14.57Zm-4.857-2.428c.668 0 1.24.238 1.716.714.475.476.713 1.047.712 1.714v4.858A2.34 2.34 0 0 1 9 21.144a2.334 2.334 0 0 1-1.714.713H2.429a2.34 2.34 0 0 1-1.716-.714A2.334 2.334 0 0 1 0 19.43V14.57c0-.667.238-1.24.714-1.715a2.333 2.333 0 0 1 1.715-.713h4.857ZM26.714 21.857a2.34 2.34 0 0 1-1.716-.714 2.334 2.334 0 0 1-.712-1.715v-4.857c0-.668.238-1.24.714-1.716a2.334 2.334 0 0 1 1.714-.712h4.857c.668 0 1.24.238 1.716.714s.714 1.047.713 1.714v4.857a2.34 2.34 0 0 1-.714 1.716 2.334 2.334 0 0 1-1.715.713h-4.857Zm-2.428 4.857c0-.668.238-1.24.714-1.716a2.334 2.334 0 0 1 1.714-.713h4.857c.668 0 1.24.238 1.716.714s.714 1.048.713 1.715v4.857a2.34 2.34 0 0 1-.714 1.716A2.334 2.334 0 0 1 31.57 34h-4.857a2.34 2.34 0 0 1-1.716-.714 2.334 2.334 0 0 1-.712-1.715v-4.857ZM12.143 26.715c0-.668.238-1.24.714-1.716a2.334 2.334 0 0 1 1.714-.713h4.858c.667 0 1.24.238 1.715.714.476.476.714 1.048.713 1.715v4.857a2.34 2.34 0 0 1-.714 1.716A2.334 2.334 0 0 1 19.43 34H14.57a2.34 2.34 0 0 1-1.715-.714 2.333 2.333 0 0 1-.713-1.714v-4.857Zm-4.857-2.429c.668 0 1.24.238 1.716.714.475.476.713 1.048.712 1.715v4.857A2.34 2.34 0 0 1 9 33.288 2.334 2.334 0 0 1 7.286 34H2.429a2.34 2.34 0 0 1-1.716-.714A2.334 2.334 0 0 1 0 31.572v-4.857c0-.668.238-1.24.714-1.716a2.334 2.334 0 0 1 1.715-.713h4.857ZM26.714 9.714A2.34 2.34 0 0 1 25 9a2.334 2.334 0 0 1-.713-1.714V2.429c0-.668.238-1.24.714-1.716A2.334 2.334 0 0 1 26.714 0h4.857c.668 0 1.24.238 1.716.714s.714 1.048.713 1.715v4.857a2.34 2.34 0 0 1-.714 1.716 2.334 2.334 0 0 1-1.715.712h-4.857Z"/></svg>