<svg xmlns="http://www.w3.org/2000/svg" width="41" height="43" fill="none"><path fill="#fff" d="m27.235 0-9.98 19.76h1.33l1.298-1.284.617-.612 1.914 1.895h6.819l7.272-17.278C35.718 2 34.179 1.355 32.496.9 30.648.402 28.651.07 27.235 0ZM13.728.002c-1.415.074-3.392.404-5.224.9-1.683.453-3.222 1.1-4.009 1.579l7.272 17.278h3.536l3.757-7.439L13.728.002Zm2.838 2.167 3.517 8.125 4.074-8.066c-2.615.553-4.956.534-7.591-.059ZM4.239 6.37 0 12.664l6.392 3.797 1.48-1.464L4.238 6.37Zm32.522 0-3.632 8.628 1.479 1.464L41 12.664 36.76 6.37ZM20.5 20.309l-1.981 1.962 1.981 2.942 1.981-2.942-1.981-1.962Zm-9.994 1.18v2.881h7.327l-1.562-2.32.568-.562h-6.333Zm13.655 0 .568.562-1.562 2.32h7.327v-2.883h-6.333Zm-12.53 4.61L9.106 41.972c11.082 1.37 11.708 1.37 22.79 0L29.368 26.1h-7.366L20.5 28.33l-1.502-2.23h-7.366Z"/></svg>