<svg xmlns="http://www.w3.org/2000/svg" width="33" height="43" fill="none"><path fill="#fff" d="M26.864 0c-.9.005-1.526.279-1.909.935-1.611 2.763-3.536 5.642-4.467 8.9.26.076.518.164.77.262a8.791 8.791 0 0 1 1.89.993c2.534-2.337 5.353-4.137 8.047-5.99 1.045-.72 1.13-1.244.937-1.907-.192-.663-.908-1.498-1.888-2.121-.981-.624-2.197-1.037-3.196-1.07A5.002 5.002 0 0 0 26.864 0Zm-6.35.068c-.921-.016-1.636.585-2.2 1.853-.823 1.848-.94 4.89-.134 7.613.015 0 .029-.002.043-.003a5.88 5.88 0 0 1 .553.003c.868-3.187 2.573-5.923 4.05-8.377C21.876.38 21.089.08 20.515.068Zm-8.951 5.328-.966 1.416c1.363.919 2.673 1.805 3.663 2.871.36.388.678.798.949 1.245.338-.421.769-.76 1.26-.987.037-.018.075-.033.113-.049a9.402 9.402 0 0 0-1.06-1.37c-1.174-1.266-2.598-2.21-3.96-3.126Zm20.591 1.123c-2.692 1.851-5.39 3.583-7.762 5.746.04.052.078.106.116.16 1.903-.617 4.554-1.403 6.802-1.776 1.057-.175 1.44-.6 1.617-1.21.176-.611.041-1.53-.49-2.47a5.802 5.802 0 0 0-.283-.45Zm-20.607 4.38c-1.375.02-2.736.395-4.045 1.17l.88 1.466c1.993-1.18 3.923-1.293 6.003-.417.048-.512.162-.976.343-1.392a3.72 3.72 0 0 1 .103-.216c-1.092-.413-2.192-.624-3.284-.61Zm6.975.361c-.513-.008-.975.068-1.327.231-.403.187-.687.45-.888.913a2.654 2.654 0 0 0-.183.685l.126-.003a12.467 12.467 0 0 1 4.538.842c.71.27 1.386.682 2.029 1.206.296-.223.459-.432.53-.598.112-.256.101-.474-.058-.807-.318-.666-1.399-1.552-2.655-2.038a6.37 6.37 0 0 0-1.888-.423 4.854 4.854 0 0 0-.224-.008Zm-2.278 3.52c-2.114.007-4.115.676-5.981 1.81-2.986 1.816-5.573 4.862-7.393 8.24C1.05 28.208.005 31.915 0 34.946c-.005 3.026.944 5.242 3.02 6.204l.01.006h.004c2.289 1.053 6.038 1.77 9.975 1.838 3.938.07 8.079-.499 11.215-1.847 2.021-.869 3.18-2.604 3.727-4.957.548-2.352.416-5.277-.218-8.174-.635-2.897-1.767-5.771-3.138-8.042-1.37-2.271-3.001-3.905-4.423-4.448-1.349-.515-2.659-.75-3.928-.746Z"/></svg>